PathFileType	4	(X/Y/Z)	 s05c0403.trc
DataRate	CameraRate	NumFrames	NumMarkers	Units	OrigDataRate	OrigDataStartFrame	OrigNumFrames
200	200	5	49	mm	200	1001	2000
Frame#	Time	racr			lacr			c7			jug			rlel			rdr			llel			ldr			s2			lic			ric			lasi			rasi			rpsi			lpsi			rgt			lgt			rth1			rth2			rth3			rth4			rlfc			rsh1			rsh2			rsh3			rsh4			rlmal			rmmal			rcal			rtoe			rmt5			lth1			lth2			lth4			lth3			llfc			lmfc			lsh1			lsh2			lsh3			lsh4			llmal			lmmal			lcal			ltoe			lmt5			SBIKE			LBIKE			RBIKE			
		X1	Y1	Z1	X2	Y2	Z2	X3	Y3	Z3	X4	Y4	Z4	X5	Y5	Z5	X6	Y6	Z6	X7	Y7	Z7	X8	Y8	Z8	X9	Y9	Z9	X10	Y10	Z10	X11	Y11	Z11	X12	Y12	Z12	X13	Y13	Z13	X14	Y14	Z14	X15	Y15	Z15	X16	Y16	Z16	X17	Y17	Z17	X18	Y18	Z18	X19	Y19	Z19	X20	Y20	Z20	X21	Y21	Z21	X22	Y22	Z22	X23	Y23	Z23	X24	Y24	Z24	X25	Y25	Z25	X26	Y26	Z26	X27	Y27	Z27	X28	Y28	Z28	X29	Y29	Z29	X30	Y30	Z30	X31	Y31	Z31	X32	Y32	Z32	X33	Y33	Z33	X34	Y34	Z34	X35	Y35	Z35	X36	Y36	Z36	X37	Y37	Z37	X38	Y38	Z38	X39	Y39	Z39	X40	Y40	Z40	X41	Y41	Z41	X42	Y42	Z42	X43	Y43	Z43	X44	Y44	Z44	X45	Y45	Z45	X46	Y46	Z46	X47	Y47	Z47	X48	Y48	Z48	X49	Y49	Z49	
1001	5.0050	845.506428	1223.123368	-115.505839	826.103797	1290.157693	-417.191882	840.968616	1340.871401	-260.540354	773.890157	1186.735294	-280.488425	633.160591	1148.051945	90.113505	686.907488	958.464717	-15.154679	584.573896	1173.244759	-571.837676	691.063035	961.740486	-497.878118	238.667974	1247.919005	-266.349123	387.540849	1248.626131	-400.415934	382.205550	1208.228913	-121.471764	413.090012	1179.467329	-372.014799	404.706933	1143.452639	-158.121620	283.337601	1276.634700	-214.802275	289.092191	1291.538856	-300.951291	284.278096	1090.405760	-115.847157	315.214510	1159.149677	-445.539627	313.095445	975.569722	-98.023019	345.335820	892.675236	-98.072492	331.469394	806.074469	-106.873207	381.665636	896.852918	-104.834076	366.721364	662.776145	-129.835668	300.410848	576.876446	-98.680992	291.278511	489.047431	-109.688480	243.736018	417.858741	-112.392309	321.167246	481.754117	-133.965765	204.155888	289.769024	-119.506865	225.407254	311.017504	-197.675819	131.040157	277.744200	-166.728989	404.736817	162.181975	-144.772334	298.072000	175.728568	-85.650432	406.438479	1039.926910	-453.560906	478.017275	995.219372	-438.293303	501.207028	1017.241537	-418.423302	519.475667	914.970934	-434.962838	579.569654	785.599533	-395.290598	545.189242	779.522812	-290.165972	468.204541	740.649774	-429.758053	398.676870	688.087715	-425.308275	311.190821	675.406385	-434.991009	409.501198	660.630585	-399.929820	200.583710	620.286194	-441.813396	235.148202	618.315719	-362.936776	139.891275	662.484093	-403.707109	218.882549	379.231430	-384.287856	163.450965	467.484503	-454.730286	-166.635765	902.489691	-268.146040	-43.343286	85.321718	-474.664471	-51.668289	80.191733	-77.185136	
1002	5.0100	845.323108	1225.418898	-118.196395	826.064152	1289.836018	-420.340449	840.742895	1341.735862	-263.940700	773.371159	1187.564925	-282.968371	634.751248	1149.094607	87.934681	687.863587	958.453087	-16.175256	582.778608	1172.551577	-572.292249	690.764614	962.120404	-497.594612	238.492624	1246.369974	-262.133137	385.274864	1250.175971	-398.640909	384.666662	1205.638024	-119.801564	411.843726	1180.903711	-371.437237	406.911210	1141.382458	-157.111552	283.422960	1274.346887	-211.593011	288.086506	1290.982607	-297.015910	286.141121	1087.768397	-114.762887	313.641490	1160.948797	-443.839446	311.965142	973.985545	-96.945372	342.002566	890.134335	-97.043180	325.532411	803.802649	-105.941958	378.588310	893.746343	-104.136373	356.979643	659.856024	-129.467291	291.007350	573.770886	-98.124811	282.333197	485.862033	-109.185693	235.183442	414.484238	-112.010599	312.293987	478.718254	-133.516492	196.683927	285.945154	-119.609109	217.474833	307.623851	-197.346656	123.639547	275.356022	-166.515434	395.234832	154.830471	-145.325232	289.163395	170.458161	-85.796043	407.087673	1043.804593	-453.102744	479.849679	1000.723716	-438.157048	501.712954	1023.015445	-418.790142	523.588232	921.320742	-434.268865	587.283565	793.520577	-395.185320	553.307692	786.466822	-290.484792	476.563955	748.265891	-429.432800	407.169412	695.391242	-425.181092	319.730001	682.510968	-434.464622	418.204969	667.736512	-400.115635	208.778569	626.138835	-440.921825	243.385551	624.312309	-362.235703	147.731942	667.745435	-403.107390	229.076351	385.138995	-384.085444	172.973378	473.060816	-454.391313	-166.559929	902.400850	-268.381081	-43.351022	85.331779	-474.663002	-51.676537	80.184686	-77.208090	
1003	5.0150	845.080163	1227.587586	-120.998248	826.096909	1289.204719	-423.502016	840.497819	1342.409648	-267.296965	772.752245	1188.189687	-285.359168	636.306374	1149.901148	85.843183	688.761101	958.273540	-17.124146	580.837165	1171.791864	-572.686292	690.493426	962.561955	-497.102788	238.327601	1244.882967	-257.905419	382.888105	1251.964528	-396.895731	387.329746	1202.837660	-118.595058	410.508321	1182.300593	-370.795193	409.078845	1139.406279	-156.385376	284.082676	1272.442899	-207.485462	287.271523	1290.692045	-293.180821	287.996550	1085.302777	-113.718548	311.814257	1162.561495	-441.700756	310.765368	972.892485	-96.138481	338.563568	888.210402	-96.279339	319.959262	802.535427	-104.118144	375.195913	891.070426	-103.668337	347.564834	657.558952	-128.709620	281.987602	571.317259	-97.247363	273.682927	483.454368	-108.342533	226.767032	411.818452	-111.296145	303.736093	476.433970	-132.600848	189.110764	283.137498	-119.165334	210.096538	304.430099	-196.695167	116.188532	273.673500	-166.071361	385.739692	148.494029	-145.426308	279.988323	165.745140	-85.777090	407.417510	1047.498420	-452.470729	481.287403	1006.213586	-438.044456	503.536944	1029.112382	-418.012160	526.920286	928.078930	-435.014087	594.336022	801.748308	-395.942253	561.224645	793.447517	-290.856540	484.541459	755.958825	-429.357559	415.458306	702.730791	-425.065165	328.033369	689.453210	-433.970609	426.839036	674.748242	-400.461679	216.888405	631.464392	-440.085870	251.560722	629.821008	-361.633709	155.280312	672.341305	-402.410139	239.568278	390.517439	-383.713660	182.649753	478.101971	-453.990725	-166.667113	902.506138	-267.938371	-43.359028	85.354568	-474.649053	-51.682119	80.193608	-77.176306	
1004	5.0200	844.411224	1229.681283	-123.892842	826.182920	1288.305139	-426.587001	840.193281	1342.861396	-270.615782	772.244069	1188.682871	-287.858212	637.704519	1150.597872	83.802287	689.590972	958.041666	-17.885278	578.759700	1170.902916	-573.173278	690.210564	963.117151	-496.573233	238.252018	1243.593180	-253.704261	380.565664	1253.513037	-395.107646	389.976880	1200.507921	-117.277923	409.090671	1183.783471	-370.106467	411.088769	1137.724290	-156.206083	284.750635	1270.747668	-203.549709	286.230207	1290.495268	-289.356841	289.829168	1083.275930	-112.668387	309.921123	1164.192996	-439.606226	309.611255	972.370643	-95.151058	335.399972	887.050481	-95.119667	314.829215	801.662892	-102.473681	371.859436	888.787529	-103.185744	338.568468	655.920528	-127.563171	273.412862	569.541537	-96.106014	265.257656	481.648547	-107.349047	218.566601	410.002784	-110.286169	295.397826	474.761233	-131.492717	181.454435	281.110962	-118.446736	202.479642	302.403436	-195.726793	108.667764	272.956172	-165.381111	375.963537	142.747107	-145.607382	270.599414	161.603321	-85.764701	407.395822	1051.147565	-451.925416	482.369484	1011.568249	-437.784671	504.026927	1035.016436	-417.699444	529.920806	934.476751	-435.215359	600.737765	810.307847	-397.539985	569.197997	800.709743	-290.961768	492.082685	763.636435	-429.331491	423.413817	709.903712	-425.037740	336.035900	696.069348	-433.393024	435.244372	681.723292	-400.976309	224.873406	636.287763	-439.280694	259.667938	634.835279	-361.166746	162.749829	676.319698	-401.742219	250.489521	395.738995	-383.553488	192.577180	482.561819	-453.657471	-166.683472	902.530333	-267.995058	-43.353739	85.406688	-474.603297	-51.673677	80.192491	-77.146437	
1005	5.0250	843.945404	1231.335998	-126.511473	826.388239	1287.091394	-429.608614	839.788887	1343.018985	-273.884435	771.169867	1188.923216	-289.963057	638.960894	1151.156061	82.000779	690.181050	957.706395	-18.468697	576.603989	1169.996943	-573.612077	689.955957	963.818941	-495.980712	238.257779	1242.606588	-249.620947	378.212307	1255.159370	-393.212286	392.565303	1198.531620	-116.192768	407.573099	1185.187153	-369.431193	412.976200	1136.266237	-156.139549	285.365706	1269.453139	-199.518369	285.308292	1290.442766	-285.666458	291.646072	1081.746324	-111.505950	308.012470	1165.840055	-437.513669	308.644520	972.562516	-94.067548	332.575360	886.616703	-93.714031	310.010271	801.732865	-100.437965	368.909937	887.569374	-102.184034	330.023913	654.803260	-126.142417	265.156156	568.515936	-94.697154	257.418537	480.646052	-105.590085	210.567681	408.821846	-108.895454	287.036659	473.351274	-130.290492	173.474370	280.047295	-116.842752	194.976835	301.076276	-194.567173	101.254046	273.031677	-164.332553	365.946057	137.433879	-145.866578	261.120922	158.104277	-85.615547	407.047490	1054.731812	-451.407126	482.981783	1016.917333	-437.490988	504.224151	1040.785281	-417.335581	532.373510	941.294197	-435.677677	606.978561	818.579327	-398.590552	576.317287	807.787658	-291.792740	499.078851	771.332555	-429.509698	431.006062	716.921496	-425.214636	343.640240	702.391111	-432.909618	443.350739	688.396433	-401.729659	232.789655	640.633028	-438.483414	267.256576	639.132014	-360.739141	170.019409	679.626243	-401.169920	261.640412	400.064426	-383.157205	202.657640	486.406175	-453.347649	-166.778967	902.484268	-267.646823	-43.350191	85.464033	-474.574736	-51.682026	80.217535	-77.105573	
